<svg version="1.2" xmlns="http://www.w3.org/2000/svg" viewBox="0 0 13 13" width="13" height="13"><style>.a{fill:#a1a1a1}.b{fill:#d6d6d6}.c{fill:#a9a9a9}.d{fill:#bebebe}.e{fill:#e9e9e9}</style><path class="a" d="m2.6 0.2h5.9c0.2 0 0.3 0.1 0.3 0.3v6c0 0.1-0.1 0.3-0.3 0.3h-5.9c-0.2 0-0.3-0.2-0.3-0.3v-6c0-0.2 0.1-0.3 0.3-0.3z"/><path class="b" d="m2.6 0.2h2.9v6.6h-2.9c-0.2 0-0.3-0.2-0.3-0.3v-6c0-0.2 0.1-0.3 0.3-0.3z"/><path class="c" d="m7.7 4.1l5.1 3c0.2 0.1 0.2 0.3 0.2 0.4l-3.1 5.1c-0.1 0.2-0.2 0.2-0.4 0.2l-5.1-3.1c-0.2 0-0.2-0.2-0.1-0.4l3-5.1c0.1-0.2 0.3-0.2 0.4-0.1z"/><path class="d" d="m0.3 6.2h6c0.1 0 0.3 0.1 0.3 0.3v5.9c0 0.2-0.2 0.3-0.3 0.3h-6c-0.2 0-0.3-0.1-0.3-0.3v-5.9c0-0.2 0.1-0.3 0.3-0.3z"/><path class="e" d="m0.3 6.2h5.2v6.5h-5.2c-0.2 0-0.3-0.1-0.3-0.3v-5.9c0-0.2 0.1-0.3 0.3-0.3z"/></svg>