<svg version="1.2" xmlns="http://www.w3.org/2000/svg" viewBox="0 0 13 13" width="13" height="13"><style>.a{fill:#ffdb2d}.b{fill:#b4d8f1}.c{fill:#98c8ed}.d{fill:#ffea8a}.e{fill:#f2f2f4}.f{fill:#dfdfe1}</style><path fill-rule="evenodd" class="a" d="m10.1 4.6c-1.2 0-2.3-1-2.3-2.3 0-1.3 1.1-2.3 2.3-2.3 1.3 0 2.3 1 2.3 2.3 0 1.3-1 2.3-2.3 2.3z"/><path fill-rule="evenodd" class="b" d="m2.5 11.1h6.9l0.7-8.8h-8.4z"/><path fill-rule="evenodd" class="c" d="m5.9 2.3v8.8h3.5l0.7-8.8z"/><path fill-rule="evenodd" class="d" d="m1.9 4.6l0.6 6.5h6.9l0.5-6.5z"/><path fill-rule="evenodd" class="a" d="m5.9 4.6v6.5h3.5l0.5-6.5z"/><path fill-rule="evenodd" class="e" d="m10.5 13h-9.2l-0.7-2.3h10.7z"/><path fill-rule="evenodd" class="f" d="m5.9 10.7v2.3h4.6l0.8-2.3z"/></svg>